<?xml version="1.0" encoding="utf-8"?>
<!-- Generator: Adobe Illustrator 19.0.0, SVG Export Plug-In . SVG Version: 6.00 Build 0)  -->
<svg version="1.1" id="Layer_1" xmlns="http://www.w3.org/2000/svg" xmlns:xlink="http://www.w3.org/1999/xlink" x="0px" y="0px"
	 viewBox="-344 359 48.1 48" style="enable-background:new -344 359 48.1 48;" xml:space="preserve">
<style type="text/css">
	.st0{opacity:0.1;fill:#2B2B2B;enable-background:new    ;}
</style>
<path class="st0" d="M-305.1,358.9h-29.8c-5,0-9.1,4.1-9.1,9.1v29.8c0,5,4.1,9.1,9.1,9.1h29.8c5,0,9.1-4.1,9.1-9.1V368
	C-296,363-300.1,358.9-305.1,358.9z M-312.6,373.2h-3.5c-0.9,0-1.4,0.2-1.7,0.5c-0.2,0.3-0.3,0.8-0.3,1.6v2.5h5.5l-0.5,5.1h-5v14.7
	h-5.5v-14.7h-3.7v-5.1h3.7v-3c0-2.3,0.4-3.9,1.3-5c0.8-1.1,2.4-1.6,4.7-1.6h5.1v5H-312.6z"/>
</svg>
