<?xml version="1.0" encoding="utf-8"?>
<!-- Generator: Adobe Illustrator 19.0.0, SVG Export Plug-In . SVG Version: 6.00 Build 0)  -->
<svg version="1.1" id="Layer_1" xmlns="http://www.w3.org/2000/svg" xmlns:xlink="http://www.w3.org/1999/xlink" x="0px" y="0px"
	 viewBox="-283 298.9 169.1 169.1" style="enable-background:new -283 298.9 169.1 169.1;" xml:space="preserve">
<style type="text/css">
	.st0{opacity:0.1;fill:#2B2B2B;}
</style>
<path class="st0" d="M-160.6,298.9h-75.7c-25.8,0-46.7,20.9-46.7,46.7v75.8c0,25.7,20.9,46.7,46.7,46.7h75.8
	c25.7,0,46.7-20.9,46.7-46.7v-75.8C-113.9,319.8-134.9,298.9-160.6,298.9 M-128.9,421.3c0,17.5-14.2,31.7-31.7,31.7h-75.7
	c-17.5,0-31.7-14.2-31.7-31.7v-75.7c0-17.5,14.2-31.7,31.7-31.7h75.8c17.5,0,31.7,14.2,31.7,31.7L-128.9,421.3L-128.9,421.3z"/>
<path class="st0" d="M-198.5,339.9c-24,0-43.5,19.5-43.5,43.5s19.5,43.6,43.6,43.6s43.6-19.5,43.6-43.6
	C-154.9,359.4-174.4,339.9-198.5,339.9 M-198.5,412c-15.7,0-28.6-12.8-28.6-28.6c0.1-15.7,12.9-28.5,28.6-28.5s28.6,12.8,28.6,28.6
	C-169.9,399.2-182.7,412-198.5,412"/>
<path class="st0" d="M-153.1,327.2c-2.9,0-5.7,1.2-7.8,3.2c-2.1,2-3.2,4.9-3.2,7.8c0,2.9,1.2,5.7,3.2,7.8c2,2,4.9,3.2,7.8,3.2
	s5.7-1.2,7.8-3.2c2-2.1,3.2-4.9,3.2-7.8s-1.2-5.7-3.2-7.8S-150.2,327.2-153.1,327.2"/>
</svg>
