<?xml version="1.0" encoding="utf-8"?>
<!-- Generator: Adobe Illustrator 19.0.0, SVG Export Plug-In . SVG Version: 6.00 Build 0)  -->
<svg version="1.1" id="Layer_1" xmlns="http://www.w3.org/2000/svg" xmlns:xlink="http://www.w3.org/1999/xlink" x="0px" y="0px"
	 viewBox="-344 358 48 47.9" style="enable-background:new -344 358 48 47.9;" xml:space="preserve">
<style type="text/css">
	.st0{opacity:0.1;fill:#2B2B2B;}
</style>
<path class="st0" d="M-305.1,358h-29.8c-5,0-9.1,4.1-9.1,9.1v29.8c0,5,4.1,9.1,9.1,9.1h29.8c5,0,9.1-4.1,9.1-9.1v-29.8
	C-296,362.1-300.1,358-305.1,358z M-326.4,395.4h-5.3v-19.8h5.3V395.4z M-327.2,373.1c-0.5,0.5-1.2,0.8-1.9,0.8
	c-0.7,0-1.4-0.3-1.9-0.8s-0.8-1.2-0.8-1.9c0-0.7,0.3-1.4,0.8-1.9c0.5-0.5,1.2-0.8,1.9-0.8c0.7,0,1.4,0.3,1.9,0.8
	c0.5,0.5,0.8,1.2,0.8,1.9C-326.4,371.9-326.7,372.6-327.2,373.1z M-308.2,395.4h-5.7V383c0-0.7-0.2-1.3-0.6-1.8
	c-0.4-0.4-1.1-0.7-2-0.7c-0.5,0-1,0.1-1.4,0.3c-0.4,0.2-0.7,0.4-0.8,0.6c-0.2,0.2-0.3,0.5-0.4,0.8c-0.1,0.3-0.1,0.5-0.1,0.6
	c0,0.1,0,0.2,0,0.2v12.5h-5.3v-19.8h5.3v1.6c0.4-0.4,0.7-0.6,0.8-0.6s0.2-0.1,0.4-0.3c0.2-0.1,0.4-0.2,0.6-0.3
	c0.1-0.1,0.3-0.1,0.6-0.2c0.2-0.1,0.5-0.1,0.7-0.2s0.5-0.1,0.8-0.1c0.5,0,1,0,1.5,0.1c0.5,0.1,1.1,0.3,1.9,0.6
	c0.7,0.3,1.4,0.7,1.9,1.2c0.5,0.5,1,1.2,1.4,2.2c0.4,1,0.6,2.1,0.6,3.4V395.4z"/>
</svg>
