<?xml version="1.0" encoding="utf-8"?>
<!-- Generator: Adobe Illustrator 19.0.0, SVG Export Plug-In . SVG Version: 6.00 Build 0)  -->
<svg version="1.1" id="Layer_1" xmlns="http://www.w3.org/2000/svg" xmlns:xlink="http://www.w3.org/1999/xlink" x="0px" y="0px"
	 viewBox="-271 285 48 48" style="enable-background:new -271 285 48 48;" xml:space="preserve">
<style type="text/css">
	.st0{opacity:0.1;fill:#2B2B2B;}
</style>
<title>Monogram</title>
<desc>Created with Sketch.</desc>
<title>Monogram</title>
<desc>Created with Sketch.</desc>
<path class="st0" d="M-229.7,285h-34.6c-3.7,0-6.7,3-6.7,6.7v34.6c0,3.7,3,6.7,6.7,6.7h34.6c3.7,0,6.7-3,6.7-6.7v-34.6
	C-223,288-226,285-229.7,285z M-231.1,296.4l-2.6,2.5c-0.2,0.2-0.3,0.4-0.3,0.7v18.1c0,0.3,0.1,0.5,0.3,0.7l2.5,2.5v0.5h-12.6v-0.5
	l2.6-2.5c0.2-0.2,0.2-0.3,0.2-0.7V303l-7.2,18.4h-1l-8.4-18.4v12.3c-0.1,0.5,0.1,1,0.5,1.4l3.4,4.1v0.5h-9.6v-0.5l3.4-4.1
	c0.4-0.4,0.5-0.9,0.4-1.4V301h0c0-0.4-0.1-0.8-0.4-1.1l-3-3.6v-0.5h9.3l7.2,15.8l6.3-15.8h8.9V296.4z"/>
</svg>
