<?xml version="1.0" encoding="utf-8"?>
<!-- Generator: Adobe Illustrator 19.0.0, SVG Export Plug-In . SVG Version: 6.00 Build 0)  -->
<svg version="1.1" id="Layer_1" xmlns="http://www.w3.org/2000/svg" xmlns:xlink="http://www.w3.org/1999/xlink" x="0px" y="0px"
	 viewBox="-344 358 48 47.9" style="enable-background:new -344 358 48 47.9;" xml:space="preserve">
<style type="text/css">
	.st0{fill:#14998E;}
</style>
<path class="st0" d="M-305.1,358h-29.8c-5,0-9.1,4.1-9.1,9.1v29.8c0,5,4.1,9.1,9.1,9.1h29.8c5,0,9.1-4.1,9.1-9.1v-29.8
	C-296,362.1-300.1,358-305.1,358z M-308,376.4c0,0.2,0,0.5,0,0.7c0,2-0.4,4-1.1,5.9c-0.7,2-1.8,3.8-3.2,5.4c-1.4,1.6-3.1,3-5.3,4
	c-2.2,1-4.6,1.5-7.2,1.5c-3.3,0-6.3-0.9-9-2.6c0.5,0,1,0.1,1.4,0.1c2.7,0,5.2-0.8,7.3-2.5c-1.3,0-2.4-0.4-3.4-1.2s-1.7-1.8-2.1-3
	c0.4,0.1,0.7,0.1,1.1,0.1c0.5,0,1-0.1,1.6-0.2c-1.4-0.3-2.5-1-3.4-2.1c-0.9-1.1-1.3-2.3-1.3-3.7v-0.1c0.8,0.5,1.7,0.7,2.6,0.7
	c-1.8-1.2-2.6-2.8-2.6-4.9c0-1.1,0.3-2.1,0.8-3c1.5,1.8,3.3,3.3,5.4,4.4c2.1,1.1,4.4,1.7,6.8,1.8c-0.1-0.4-0.2-0.9-0.2-1.3
	c0-1.6,0.6-3,1.7-4.2s2.5-1.7,4.2-1.7c1.7,0,3.2,0.6,4.3,1.9c1.3-0.3,2.6-0.7,3.8-1.4c-0.4,1.4-1.3,2.5-2.6,3.3
	c1.2-0.1,2.3-0.5,3.4-1C-305.9,374.5-306.9,375.5-308,376.4z"/>
</svg>
