<?xml version="1.0" standalone="no"?>
<!DOCTYPE svg PUBLIC "-//W3C//DTD SVG 20010904//EN"
 "http://www.w3.org/TR/2001/REC-SVG-20010904/DTD/svg10.dtd">
<svg version="1.0" xmlns="http://www.w3.org/2000/svg"
 width="260.000000pt" height="260.000000pt" viewBox="0 0 260.000000 260.000000"
 preserveAspectRatio="xMidYMid meet">
<metadata>
Created by potrace 1.11, written by Peter Selinger 2001-2013
</metadata>
<g transform="translate(0.000000,260.000000) scale(0.100000,-0.100000)"
fill="#000000" stroke="none">
<path d="M484 2589 c-2 -5 4 -6 15 -4 14 2 18 -1 15 -10 -4 -10 -12 -11 -29
-5 -19 7 -23 6 -19 -5 7 -17 -36 -17 -49 0 -5 6 -6 2 -3 -9 5 -13 2 -17 -9
-12 -9 3 -15 0 -15 -8 0 -23 -25 -37 -40 -23 -10 10 -12 9 -7 -5 6 -18 -15
-31 -38 -22 -11 4 -13 2 -9 -9 3 -8 0 -18 -7 -23 -8 -4 -10 -3 -5 4 4 7 2 12
-5 12 -6 0 -9 -8 -6 -20 4 -16 2 -18 -13 -10 -15 8 -17 6 -13 -13 4 -18 3 -19
-6 -7 -9 12 -11 11 -12 -10 0 -14 -3 -19 -6 -12 -2 6 -9 10 -13 7 -5 -3 -6
-13 -3 -22 4 -10 2 -14 -4 -10 -6 4 -14 0 -17 -9 -3 -8 -11 -12 -17 -8 -8 5
-8 1 0 -14 10 -18 9 -20 -9 -17 -13 3 -18 0 -14 -7 5 -8 1 -9 -11 -4 -15 5
-16 4 -5 -9 9 -11 9 -15 1 -15 -7 0 -9 -4 -6 -10 5 -9 -7 -14 -26 -12 -4 1 -6
-14 -5 -32 1 -26 -2 -33 -15 -31 -12 2 -14 -3 -11 -25 2 -15 -2 -31 -9 -35 -8
-6 -10 -4 -4 5 5 9 4 11 -4 6 -9 -6 -9 -11 -1 -21 8 -9 8 -15 0 -20 -6 -3 -7
-11 -4 -17 5 -7 1 -9 -9 -5 -12 4 -14 2 -10 -11 4 -9 11 -20 17 -24 7 -5 4 -8
-6 -8 -10 0 -18 6 -18 13 0 8 -3 8 -9 -2 -9 -14 -12 -374 -3 -398 2 -7 8 -13
14 -13 5 0 6 6 1 13 -10 16 -12 56 -3 62 4 3 7 -3 7 -13 0 -38 3 -53 11 -49 4
3 7 -8 7 -23 1 -16 -3 -26 -8 -23 -5 3 -4 -4 2 -16 9 -16 9 -21 0 -21 -6 0 -3
-8 8 -18 10 -9 13 -13 6 -8 -21 14 -15 -1 10 -25 17 -17 18 -21 4 -16 -9 4
-17 2 -17 -3 0 -6 6 -10 14 -10 8 0 18 -4 21 -10 3 -6 -1 -7 -10 -4 -11 5 -14
2 -9 -10 3 -9 11 -13 18 -9 6 4 6 0 -2 -9 -10 -12 -10 -18 -1 -23 8 -6 7 -10
-2 -16 -9 -6 -3 -8 18 -5 26 3 31 0 28 -15 -2 -10 1 -22 7 -25 7 -4 8 -2 4 4
-8 13 -6 14 35 16 15 1 26 -3 25 -10 -1 -7 3 -12 9 -11 5 1 9 11 7 22 l-2 20
12 -20 c7 -11 19 -21 27 -23 12 -3 12 0 2 12 -9 11 -9 16 0 22 8 4 9 3 5 -4
-9 -15 -1 -15 27 -1 21 10 21 10 3 -5 -15 -12 -17 -19 -8 -26 6 -6 10 -7 7 -3
-7 9 33 35 45 28 5 -3 20 -1 32 5 22 11 22 10 4 -4 -11 -9 -17 -19 -13 -23 4
-3 16 2 27 12 17 15 20 16 25 3 7 -18 31 -18 61 -1 12 7 24 10 27 7 3 -3 16
-1 29 6 22 11 22 10 4 -4 -11 -9 -16 -19 -13 -23 4 -3 19 4 33 18 14 13 25 20
24 14 -1 -5 -2 -17 0 -25 1 -11 4 -9 10 5 7 17 9 17 9 3 1 -10 6 -18 12 -18 5
0 7 6 3 13 -5 7 0 6 11 -3 17 -14 17 -13 10 10 -7 24 -7 25 9 5 9 -11 16 -15
15 -10 -3 23 2 27 18 14 14 -12 16 -12 8 0 -5 9 -3 18 6 25 22 18 65 70 52 62
-7 -4 -13 -2 -13 3 0 6 5 11 10 11 7 0 6 8 -1 23 -11 20 -11 21 5 8 14 -12 16
-12 11 1 -3 8 2 21 12 29 17 13 17 13 3 -6 -14 -19 -14 -19 3 -6 17 14 17 16
3 27 -15 10 -14 12 6 18 19 5 20 8 8 16 -11 7 -11 10 -2 10 7 0 10 4 7 10 -3
5 0 7 9 4 11 -4 14 0 11 14 -2 11 3 23 11 26 8 3 14 10 14 16 0 6 -5 8 -12 4
-7 -4 -8 -3 -4 4 4 7 15 12 24 12 15 0 15 2 2 10 -13 8 -13 10 2 10 11 0 15 5
12 15 -4 8 -1 21 5 29 6 7 7 17 3 21 -4 5 -1 5 6 0 10 -5 11 -10 3 -18 -6 -6
-11 -16 -11 -22 0 -5 6 -1 12 10 7 11 11 21 9 23 -1 2 5 15 14 29 9 14 12 22
6 19 -6 -4 -11 -2 -11 3 0 6 9 11 20 11 11 0 20 5 20 11 0 5 -4 8 -8 5 -5 -3
-9 1 -9 9 0 10 5 11 18 4 15 -8 17 -6 12 8 -6 16 -5 17 13 3 10 -8 16 -10 12
-6 -9 10 30 41 39 32 4 -3 1 -6 -5 -6 -7 0 -12 -4 -12 -10 0 -5 3 -9 8 -9 4 1
14 1 22 0 13 -1 13 -2 0 -11 -9 -6 -10 -10 -3 -10 6 0 14 4 18 10 3 5 13 6 21
3 12 -4 13 -8 3 -13 -9 -6 -9 -12 3 -24 9 -8 18 -13 22 -11 3 3 4 2 1 -2 -3
-3 1 -13 8 -21 9 -13 9 -14 0 -8 -7 4 -13 2 -13 -3 0 -6 7 -11 15 -11 8 0 15
-5 15 -11 0 -5 -6 -7 -12 -3 -9 6 -9 3 0 -9 8 -9 11 -21 7 -27 -9 -14 8 -13
24 3 11 10 11 8 2 -10 -10 -19 -9 -23 5 -23 13 0 14 -3 4 -15 -8 -10 -9 -15
-2 -15 7 0 9 -7 5 -17 -4 -9 -2 -14 3 -10 6 3 16 2 24 -4 10 -6 11 -9 3 -9 -7
0 -13 -4 -13 -10 0 -5 8 -7 18 -3 14 5 15 3 5 -8 -17 -17 -16 -32 0 -26 10 4
13 -2 9 -19 -2 -14 0 -24 7 -24 7 0 9 4 6 10 -3 6 1 7 10 3 12 -4 13 -8 4 -13
-9 -6 -6 -16 11 -39 12 -19 20 -40 17 -52 -3 -10 -1 -17 4 -13 5 3 9 0 9 -6 0
-6 5 -8 12 -4 7 4 8 3 4 -5 -4 -6 -12 -9 -17 -6 -5 4 -9 2 -9 -4 0 -5 9 -13
21 -16 14 -5 19 -13 16 -26 -3 -10 0 -22 5 -26 7 -4 8 -1 3 8 -5 8 -4 11 1 6
5 -5 9 -12 9 -15 0 -4 4 -13 8 -19 6 -9 3 -11 -10 -6 -17 7 -17 6 0 -11 9 -10
14 -22 11 -28 -4 -7 -2 -8 5 -4 6 4 8 13 4 19 -4 7 1 6 11 -2 12 -10 14 -17 6
-25 -13 -13 -13 -29 0 -21 6 3 10 -1 10 -10 0 -10 -5 -13 -12 -9 -7 4 -2 -5
11 -19 14 -15 27 -27 29 -27 3 0 -3 9 -13 20 -10 11 -15 20 -10 20 18 0 33
-35 23 -54 -8 -14 -7 -17 3 -11 9 6 11 3 6 -8 -3 -9 -2 -19 4 -22 5 -4 6 -12
2 -18 -4 -7 1 -6 10 2 15 12 17 12 11 -3 -4 -11 1 -22 15 -32 12 -9 19 -19 16
-24 -3 -5 -1 -11 3 -14 5 -3 8 -16 7 -29 -2 -19 2 -24 19 -23 34 2 49 15 35
32 -9 11 -8 14 7 14 15 0 16 2 5 9 -9 6 -10 10 -2 12 7 3 13 14 13 26 1 13 7
19 15 16 9 -4 11 0 7 11 -3 9 -1 16 5 16 6 0 11 -5 11 -12 0 -6 3 -9 6 -6 3 4
0 16 -6 28 -10 18 -9 21 1 15 9 -6 11 -2 6 14 -4 18 -3 20 9 10 12 -10 13 -9
8 5 -4 11 -2 16 6 14 11 -3 17 14 22 65 1 9 5 17 8 17 4 0 15 7 26 16 18 14
18 15 -5 8 -21 -5 -22 -4 -10 9 8 8 17 13 22 10 4 -2 7 1 7 7 0 6 5 8 13 4 9
-6 9 -5 0 7 -8 10 -9 19 -1 29 8 12 9 12 4 -2 -8 -25 11 -22 24 3 7 11 14 18
17 15 3 -3 14 -1 24 4 12 7 20 6 25 -2 4 -6 3 -8 -3 -5 -6 4 -17 -1 -24 -11
-12 -15 -12 -16 1 -6 8 6 23 10 32 9 15 -3 16 0 6 18 -10 19 -9 20 4 9 13 -10
17 -10 21 0 4 10 6 10 6 1 1 -7 8 -13 17 -13 9 0 12 -5 8 -12 -4 -7 -3 -8 5
-4 6 4 9 11 6 16 -3 5 -1 12 5 15 6 4 10 3 9 -2 -3 -19 2 -30 16 -30 12 0 12
3 2 15 -10 13 -9 14 10 4 17 -10 25 -9 37 4 9 8 16 12 16 7 0 -5 -5 -14 -12
-21 -16 -16 3 -15 24 2 10 7 14 17 10 21 -4 5 -1 5 6 1 9 -6 10 -11 2 -21 -8
-10 -5 -13 14 -11 18 1 22 4 14 14 -8 9 -7 11 6 6 9 -3 16 -9 16 -13 0 -4 7
-8 15 -8 11 0 12 4 4 13 -7 8 -6 14 2 20 8 4 9 3 5 -4 -9 -15 -1 -15 27 -1 21
10 21 10 3 -5 -17 -13 -18 -18 -6 -29 7 -6 10 -7 7 -2 -3 6 3 16 13 23 15 9
18 9 14 -1 -3 -8 4 -13 20 -13 15 0 22 5 19 13 -4 9 0 11 11 7 10 -4 16 -1 16
7 0 7 3 9 6 6 4 -4 1 -13 -6 -22 -15 -18 -1 -19 22 -1 10 7 14 17 10 21 -4 5
-1 5 6 1 10 -6 10 -11 1 -22 -7 -8 -7 -14 -1 -14 5 0 17 10 26 23 11 15 14 16
10 4 -4 -12 -2 -17 7 -15 8 2 13 -3 11 -10 -1 -8 2 -11 8 -7 6 4 9 12 8 19 -2
6 2 11 7 11 6 0 9 -3 8 -7 -2 -4 4 -5 12 -2 8 4 13 10 10 14 -5 8 3 7 42 -5
13 -4 21 -10 19 -14 -6 -10 42 -6 51 4 5 4 1 5 -7 0 -8 -5 -12 -4 -7 0 12 14
36 14 33 2 -2 -7 -1 -9 1 -4 3 4 9 4 15 1 6 -4 6 1 -1 14 -9 16 -8 20 5 18 9
-1 20 -9 26 -17 8 -11 9 -11 5 3 -4 9 1 19 10 22 13 5 13 9 2 23 -12 14 -12
16 0 9 9 -6 12 -5 9 5 -3 8 2 20 11 27 14 12 14 13 -3 8 -16 -6 -17 -4 -6 9 7
8 16 13 20 10 16 -10 17 20 1 45 -15 24 -15 24 4 10 10 -8 16 -10 12 -3 -4 6
-3 14 3 18 5 3 10 12 10 18 0 8 -3 8 -9 -1 -7 -11 -9 -10 -14 3 -4 10 -3 14 4
10 6 -4 13 2 16 14 3 11 8 19 12 17 4 -3 8 72 9 167 1 126 -2 173 -11 179 -9
6 -9 8 1 8 6 0 12 5 12 11 0 5 -6 7 -12 3 -8 -5 -7 0 2 11 12 15 12 17 1 10
-11 -6 -13 -4 -8 9 6 14 3 16 -16 12 -12 -3 -16 -3 -9 0 10 5 10 9 1 20 -8 9
-8 14 -1 14 6 0 14 -4 17 -10 3 -5 11 -10 17 -10 6 0 -1 9 -16 21 -14 11 -26
26 -26 32 0 7 5 6 11 -3 9 -12 10 -12 5 3 -3 10 -6 20 -6 23 0 2 -8 1 -17 -3
-14 -5 -15 -3 -6 7 8 9 7 16 -5 31 -8 10 -20 15 -25 12 -6 -3 -7 -1 -3 5 4 7
9 21 11 33 4 18 2 19 -12 7 -14 -11 -15 -10 -9 10 6 18 4 21 -11 15 -14 -5
-16 -4 -7 8 8 10 6 18 -7 31 -9 9 -20 13 -24 10 -3 -4 -3 2 1 13 4 11 4 17 -1
13 -4 -4 -14 0 -21 10 -17 21 -18 36 -2 26 6 -4 8 -3 4 4 -3 6 -15 9 -26 7
-12 -2 -18 0 -15 6 9 14 -57 76 -78 73 -19 -2 -39 33 -29 50 3 5 0 6 -6 2 -6
-4 -9 -14 -6 -24 3 -9 -1 -7 -8 6 -8 12 -17 19 -21 16 -4 -4 -7 -2 -7 4 0 7
-5 12 -11 12 -5 0 -7 -5 -3 -12 4 -7 3 -8 -5 -4 -9 6 -9 11 1 24 12 14 10 14
-11 3 -13 -7 -21 -9 -17 -3 3 5 -1 15 -9 22 -13 11 -14 10 -9 -6 6 -16 4 -16
-15 4 -19 19 -41 22 -41 6 0 -3 4 -3 9 1 5 3 12 1 15 -4 4 -5 -2 -8 -11 -7
-10 2 -18 11 -18 22 0 20 -25 27 -37 9 -5 -6 -8 -5 -8 3 0 16 -297 15 -307 -1
-4 -6 0 -8 10 -4 10 3 17 2 17 -3 0 -6 -9 -10 -21 -10 -11 0 -18 -3 -15 -8 2
-4 -9 -8 -25 -8 -19 -1 -27 2 -22 10 3 6 -3 2 -14 -9 -11 -11 -18 -24 -15 -30
3 -5 -4 -2 -16 8 -20 19 -21 18 -15 -5 4 -18 3 -20 -6 -8 -9 13 -11 13 -11 -3
0 -15 -3 -16 -22 -6 -21 11 -22 11 -9 -5 12 -15 12 -16 -5 -9 -17 6 -18 5 -4
-12 14 -17 14 -18 -9 -6 -15 8 -21 9 -17 2 4 -6 2 -11 -4 -11 -6 0 -8 -5 -4
-12 5 -9 2 -8 -9 1 -15 12 -17 12 -12 -2 4 -8 1 -18 -6 -23 -7 -4 -10 -3 -6 3
3 5 0 10 -8 10 -10 0 -11 -5 -5 -18 8 -14 6 -16 -13 -12 -13 3 -17 1 -11 -4
15 -10 -58 -81 -77 -75 -8 2 -6 -2 4 -10 17 -13 17 -15 3 -27 -8 -7 -19 -10
-24 -7 -5 3 -9 -1 -9 -9 0 -8 4 -15 9 -15 5 0 6 -5 3 -10 -5 -8 -11 -8 -20 0
-10 9 -13 5 -11 -19 2 -22 -1 -28 -10 -21 -8 8 -11 3 -10 -17 1 -25 -2 -27
-36 -28 -20 0 -34 4 -31 8 3 4 -1 15 -9 24 -11 14 -11 16 0 9 11 -7 12 -4 3
13 -7 12 -9 26 -5 32 5 8 1 8 -14 0 -17 -9 -19 -8 -15 9 4 14 0 20 -10 20 -22
0 -32 20 -16 31 10 6 8 9 -10 9 -20 0 -22 2 -11 15 11 13 10 14 -5 8 -14 -5
-17 -3 -12 10 3 9 2 17 -3 17 -5 0 -18 9 -29 21 -11 13 -24 18 -32 14 -8 -5
-10 -4 -5 3 4 7 2 12 -4 12 -6 0 -15 11 -20 25 -6 15 -15 23 -23 19 -8 -3 -17
2 -21 11 -4 10 -12 15 -21 11 -9 -3 -20 3 -27 14 -7 11 -16 20 -21 20 -4 0 -5
-6 -1 -12 5 -9 2 -9 -9 1 -18 15 -23 26 -7 16 6 -3 10 -1 10 4 0 15 -23 14
-39 -1 -11 -11 -11 -9 -1 12 10 21 10 23 -1 13 -16 -16 -39 -17 -39 -2 0 5 4
7 10 4 6 -4 7 1 3 11 -5 14 -8 13 -18 -6 -9 -17 -14 -19 -17 -9 -4 12 -7 12
-22 0 -9 -8 -16 -10 -15 -5 1 5 -1 17 -5 26 -7 15 -25 17 -163 16 -85 -1 -156
-5 -159 -9z m71 -9 c3 -6 -1 -7 -9 -4 -18 7 -21 14 -7 14 6 0 13 -4 16 -10z
m1259 2 c3 -5 -1 -9 -9 -9 -8 0 -12 4 -9 9 3 4 7 8 9 8 2 0 6 -4 9 -8z m271
-30 c-3 -3 -11 0 -18 7 -9 10 -8 11 6 5 10 -3 15 -9 12 -12z m270 -121 c3 -5
2 -12 -3 -15 -5 -3 -9 1 -9 9 0 17 3 19 12 6z m-2229 -183 c4 -7 3 -8 -4 -4
-7 4 -12 2 -12 -5 0 -7 -3 -10 -6 -6 -6 5 3 27 11 27 2 0 7 -5 11 -12z m-100
-223 c1 -8 -2 -15 -6 -15 -5 0 -8 9 -7 20 1 21 10 18 13 -5z m2558 -344 c3 -5
-2 -15 -12 -22 -15 -12 -16 -12 -5 2 7 9 10 19 6 22 -3 4 -4 7 0 7 3 0 8 -4
11 -9z m-27 -147 c-3 -3 -12 -4 -19 -1 -8 3 -5 6 6 6 11 1 17 -2 13 -5z
m-1842 -53 c3 -5 1 -12 -5 -16 -5 -3 -10 1 -10 9 0 18 6 21 15 7z m-270 -100
c-6 -5 -25 10 -25 20 0 5 6 4 14 -3 8 -7 12 -15 11 -17z m1065 -365 c0 -3 -4
-8 -10 -11 -5 -3 -10 -1 -10 4 0 6 5 11 10 11 6 0 10 -2 10 -4z"/>
<path d="M812 2588 c2 -5 8 -9 13 -9 5 0 11 4 13 9 1 5 -4 9 -13 9 -9 0 -14
-4 -13 -9z"/>
<path d="M981 2523 c-1 -17 16 -25 25 -12 4 7 3 9 -4 5 -5 -3 -13 0 -15 6 -4
9 -6 10 -6 1z"/>
<path d="M2290 2485 c0 -8 2 -15 4 -15 2 0 6 7 10 15 3 8 1 15 -4 15 -6 0 -10
-7 -10 -15z"/>
<path d="M965 1580 c-4 -6 -11 -7 -17 -4 -7 4 -8 2 -4 -5 4 -6 12 -9 17 -6 5
4 9 1 9 -4 0 -10 -20 -15 -45 -12 -5 1 -3 -4 6 -11 14 -11 14 -15 3 -26 -8 -7
-14 -9 -14 -5 -1 11 -24 -29 -26 -44 -1 -7 -11 -25 -23 -41 -16 -23 -18 -32
-8 -42 9 -10 9 -11 -2 -5 -11 6 -13 2 -9 -18 3 -15 2 -24 -3 -22 -12 8 -40 -6
-38 -19 4 -33 -2 -48 -17 -42 -9 3 -12 2 -9 -5 4 -5 1 -16 -5 -24 -6 -8 -8
-20 -4 -27 4 -7 4 -10 -1 -6 -4 4 -15 2 -23 -5 -13 -11 -14 -9 -2 13 12 23 12
24 -3 11 -10 -7 -17 -21 -17 -30 -1 -13 -3 -13 -16 4 -16 19 -16 19 -9 -5 6
-19 5 -22 -5 -13 -7 6 -23 8 -39 4 -14 -4 -33 -7 -41 -6 -8 0 -18 -4 -22 -10
-5 -7 -8 -6 -8 1 0 6 -10 11 -22 10 -13 -1 -38 1 -55 5 -19 4 -30 3 -27 -2 3
-5 0 -9 -5 -9 -6 0 -11 6 -12 13 0 6 -4 3 -9 -8 -8 -19 -9 -19 -9 -1 -1 19 -1
19 -23 0 -22 -19 -22 -19 -8 0 10 14 11 17 2 12 -17 -10 -169 -14 -185 -4 -6
3 -15 4 -20 1 -5 -3 -3 -9 4 -14 11 -7 10 -9 -3 -9 -9 0 -20 -5 -24 -12 -5 -7
-3 -8 6 -3 10 6 12 3 8 -13 -4 -12 -2 -20 3 -16 5 3 17 0 26 -6 14 -9 14 -10
2 -7 -9 3 -16 -1 -16 -9 0 -7 4 -11 9 -8 15 10 57 -43 45 -55 -8 -8 -7 -11 2
-11 7 0 9 -4 6 -10 -3 -6 1 -7 10 -4 11 5 14 2 8 -12 -5 -14 -3 -16 12 -11 15
6 16 5 5 -8 -10 -12 -10 -15 3 -15 11 0 14 -5 10 -17 -5 -12 -3 -14 7 -8 10 6
12 4 7 -9 -5 -11 -3 -15 5 -10 8 5 9 2 5 -10 -6 -14 -3 -16 16 -11 18 6 20 5
9 -6 -10 -11 -8 -16 10 -27 15 -8 16 -11 5 -8 -11 3 -15 2 -12 -4 3 -6 12 -10
18 -10 7 0 20 -9 30 -20 9 -11 13 -20 7 -20 -5 0 -14 8 -19 18 -6 9 -11 12
-11 6 0 -6 7 -17 15 -24 8 -7 13 -16 10 -20 -3 -5 4 -11 15 -15 11 -3 20 -11
20 -16 0 -6 6 -7 13 -3 7 5 6 0 -3 -11 -9 -11 -10 -16 -2 -11 7 4 12 1 12 -8
0 -9 5 -16 11 -16 5 0 7 5 3 12 -4 7 -3 8 4 4 6 -4 8 -14 5 -23 -4 -11 -3 -14
5 -9 8 5 10 2 6 -8 -7 -19 7 -21 26 -4 9 8 8 5 -2 -7 -14 -19 -14 -21 5 -40
11 -11 16 -13 12 -5 -5 10 -1 8 13 -4 26 -23 28 -28 5 -19 -15 6 -16 5 -3 -9
8 -9 18 -14 23 -11 4 2 7 -1 7 -7 0 -6 5 -8 13 -4 7 5 6 0 -3 -11 -10 -12 -11
-16 -2 -11 9 5 17 -2 25 -23 6 -17 15 -31 20 -31 4 0 3 10 -3 23 -10 20 -9 20
9 -3 11 -14 21 -30 21 -36 0 -5 10 -15 23 -20 12 -6 17 -9 10 -7 -7 1 -15 -3
-19 -10 -4 -7 -4 -9 1 -5 5 5 15 -1 23 -13 8 -11 20 -18 27 -15 7 2 16 -2 19
-10 4 -10 1 -13 -7 -9 -6 4 2 -7 20 -23 17 -17 28 -34 25 -39 -4 -4 0 -2 8 4
17 16 30 17 30 2 0 -5 -4 -7 -10 -4 -5 3 -10 2 -10 -3 0 -6 7 -13 16 -16 9 -3
12 -11 8 -18 -5 -8 -1 -8 12 2 10 8 16 11 12 6 -11 -13 12 -48 27 -42 7 2 23
-6 35 -19 13 -14 26 -22 31 -20 4 3 5 -5 1 -17 -4 -17 -2 -20 11 -15 9 3 19 1
23 -5 4 -7 3 -8 -4 -4 -7 4 -12 2 -12 -5 0 -6 8 -9 20 -6 11 3 18 1 14 -4 -3
-5 2 -19 12 -31 11 -16 15 -17 11 -5 -7 20 -1 22 17 4 7 -7 11 -17 9 -24 -2
-6 1 -15 8 -19 7 -4 9 -3 6 2 -3 5 3 10 13 10 14 0 16 -3 8 -13 -8 -10 -7 -12
6 -7 11 4 16 1 16 -10 0 -9 -5 -16 -12 -16 -6 0 -8 -3 -5 -6 4 -4 13 -2 21 5
11 9 15 9 19 -1 4 -10 8 -10 16 2 6 8 11 10 11 5 0 -6 -4 -15 -10 -21 -6 -6
-3 -10 9 -10 11 0 17 4 15 8 -12 19 25 6 40 -14 14 -20 15 -20 7 -3 -8 18 -6
21 14 21 13 0 22 -3 19 -7 -2 -4 3 -9 11 -12 9 -4 12 -1 8 9 -4 10 0 12 11 8
9 -3 14 -10 11 -14 -3 -5 -1 -11 4 -14 11 -7 9 13 -2 31 -6 9 -3 11 7 7 9 -3
16 -11 16 -18 0 -6 5 -4 10 4 9 13 10 13 11 0 0 -10 3 -8 9 5 7 16 9 17 9 3 1
-17 24 -19 38 -3 4 4 3 5 -4 1 -6 -3 -14 -2 -17 3 -7 11 13 9 33 -3 11 -7 13
-5 8 7 -3 10 -2 17 3 17 6 0 10 -5 10 -11 0 -5 5 -7 10 -4 8 5 7 12 -2 23 -11
13 -10 15 5 9 9 -3 17 -2 17 3 0 6 5 10 11 10 5 0 7 -6 3 -12 -6 -10 -3 -9 8
0 9 8 14 20 11 28 -3 8 0 14 7 14 6 0 8 5 4 12 -4 7 -3 8 4 4 6 -4 9 -14 6
-24 -5 -15 -4 -15 6 1 6 10 16 14 23 10 9 -5 8 -2 0 9 -13 15 -8 28 11 28 6 0
4 -5 -4 -11 -13 -9 -13 -10 0 -6 8 2 15 13 14 25 0 17 3 19 17 12 12 -7 19 -5
23 6 3 8 11 12 17 8 8 -4 9 -3 5 5 -4 6 -12 8 -18 5 -7 -4 -8 -2 -4 4 4 7 15
12 24 12 9 0 24 5 32 11 13 9 12 10 -2 5 -10 -3 -18 -1 -18 4 0 6 9 10 20 10
11 0 20 5 20 11 0 5 6 7 13 3 8 -5 7 -2 -2 9 -12 15 -12 17 2 12 8 -4 18 -1
23 6 4 7 3 10 -4 5 -6 -3 -13 -2 -16 3 -3 4 2 8 12 8 42 0 48 3 32 13 -11 7
-11 10 -2 10 7 0 10 5 6 11 -4 7 2 6 17 -2 23 -12 23 -11 9 6 -14 17 -13 18 3
12 19 -7 24 8 5 17 -7 3 -4 5 7 5 35 -2 38 1 24 18 -10 11 -10 14 -1 9 7 -4
12 -2 12 6 0 9 3 9 10 -2 8 -13 10 -12 10 2 0 10 5 17 12 15 7 -1 13 5 14 13
0 8 2 20 2 27 1 7 8 10 16 7 8 -3 17 0 22 7 5 8 3 10 -6 4 -8 -5 -11 -3 -8 6
3 8 12 13 20 11 10 -1 15 4 14 15 0 11 5 17 16 17 14 -1 16 2 7 18 -9 17 -8
18 10 9 17 -10 19 -8 16 10 -3 15 0 19 10 15 8 -3 17 0 21 6 4 7 3 8 -4 4 -7
-4 -12 -1 -12 9 0 9 5 13 10 10 6 -4 17 -1 26 5 11 10 12 16 3 27 -9 11 -9 12
4 7 12 -4 15 -1 12 16 -4 19 -2 20 12 8 9 -7 14 -8 11 -3 -5 9 15 36 27 35 3
0 4 3 3 8 -1 4 -8 6 -15 4 -7 -1 1 12 17 30 16 17 32 29 36 25 4 -4 -1 -9 -10
-13 -9 -3 -16 -11 -16 -17 0 -5 9 -2 20 8 14 13 17 22 10 35 -7 14 -6 17 8 16
10 0 16 6 16 16 -1 10 1 17 5 16 18 -2 22 3 12 16 -10 12 -8 14 11 9 18 -4 20
-3 8 6 -13 9 -13 11 2 11 10 0 17 5 15 12 -1 7 5 12 13 13 9 0 14 8 12 19 -2
11 1 15 7 11 7 -3 8 0 5 9 -4 10 -1 16 7 16 12 0 12 2 1 9 -10 6 -8 10 8 14
12 3 19 10 16 15 -3 6 1 13 10 16 11 4 14 14 11 27 -4 16 -3 18 9 8 17 -14 19
2 2 20 -11 10 -10 11 4 6 11 -4 21 1 29 17 7 13 12 26 11 31 -1 4 1 7 6 7 4 0
7 14 8 30 1 27 0 28 -13 12 -12 -14 -14 -14 -10 -1 3 9 -1 16 -9 16 -7 0 -11
-4 -8 -9 3 -4 -2 -5 -11 -2 -13 5 -13 9 -3 23 9 11 6 10 -9 -3 -13 -10 -20
-23 -17 -28 4 -6 -3 -5 -15 1 -11 7 -21 9 -21 6 0 -3 -8 -2 -17 4 -13 7 -23 5
-37 -7 -11 -9 -16 -11 -12 -4 5 8 0 12 -13 12 -10 0 -21 -3 -24 -7 -2 -5 -2
-2 -1 5 2 6 -1 12 -6 12 -6 0 -10 -5 -10 -12 0 -6 -7 -3 -16 8 -12 15 -15 15
-10 2 4 -14 0 -15 -26 -7 -17 4 -35 6 -39 3 -17 -10 -78 -13 -84 -4 -4 6 -11
7 -17 4 -6 -4 -15 0 -20 7 -8 11 -9 10 -4 -3 3 -10 1 -18 -4 -18 -6 0 -10 4
-10 9 0 5 -13 8 -30 7 -19 0 -30 -6 -30 -15 0 -15 -14 -6 -16 10 -1 5 -2 12
-3 15 0 4 -8 1 -16 -6 -8 -6 -20 -8 -26 -4 -8 4 -9 3 -5 -4 4 -7 1 -12 -7 -12
-7 0 -24 -12 -38 -27 -13 -14 -19 -23 -12 -19 6 3 14 2 18 -4 3 -5 1 -10 -5
-10 -6 0 -8 -4 -5 -10 3 -6 -1 -7 -10 -4 -9 4 -15 3 -14 -2 4 -22 -2 -45 -10
-39 -5 3 -13 0 -17 -6 -4 -8 -3 -9 4 -5 7 4 12 2 12 -3 0 -6 -5 -11 -11 -11
-5 0 -7 -5 -3 -12 5 -8 1 -9 -12 -5 -18 7 -18 7 0 -8 11 -8 17 -16 13 -16 -4
-1 -11 -2 -17 -3 -16 -2 -38 -39 -32 -55 4 -10 1 -12 -9 -6 -12 7 -12 6 -1 -7
15 -18 0 -34 -20 -22 -7 4 -10 3 -5 -1 4 -5 0 -20 -10 -34 -13 -20 -13 -23 -1
-14 12 11 14 9 13 -7 -1 -11 -5 -23 -10 -27 -4 -5 -5 -2 -1 5 4 7 1 12 -9 12
-9 0 -13 -4 -10 -10 3 -6 1 -10 -6 -10 -8 0 -9 -3 0 -13 8 -11 6 -18 -12 -33
l-22 -19 20 25 20 25 -22 -19 c-15 -12 -23 -30 -23 -50 0 -25 -2 -28 -11 -16
-9 12 -10 10 -6 -8 3 -13 3 -21 0 -18 -4 3 -13 0 -21 -6 -17 -15 -42 -19 -42
-8 0 5 -11 7 -25 5 -14 -1 -28 2 -31 7 -3 4 -9 6 -13 4 -4 -3 -8 1 -8 9 0 8 4
12 9 9 4 -3 8 -1 8 3 0 5 -9 14 -21 21 -15 10 -20 21 -16 38 3 17 -2 28 -21
40 -19 13 -22 18 -11 25 11 7 9 9 -6 9 -17 0 -17 2 -5 10 13 8 12 10 -2 10
-13 0 -18 8 -18 26 0 15 -8 33 -17 41 -12 10 -13 12 -3 8 8 -4 6 1 -4 9 -14
11 -15 16 -6 16 9 0 7 5 -6 15 -14 11 -15 14 -4 15 13 0 13 2 0 9 -8 6 -19 7
-25 3 -5 -3 -1 7 9 23 13 21 15 26 4 17 -12 -10 -18 -10 -27 2 -10 11 -8 17 6
26 16 10 16 10 -3 5 -17 -4 -20 -1 -19 17 2 29 -5 49 -15 43 -4 -2 -12 7 -19
21 -6 14 -8 23 -3 20 4 -2 8 3 8 13 0 10 -6 18 -13 18 -7 0 -9 -5 -6 -10 3 -6
1 -7 -5 -3 -6 4 -8 14 -5 23 4 11 3 14 -5 9 -8 -5 -10 -2 -6 9 4 9 -1 22 -12
31 -11 9 -14 13 -7 10 6 -3 10 0 9 6 -3 21 -17 39 -26 33 -5 -3 -12 0 -16 6
-4 8 -3 9 4 5 7 -4 12 -2 12 3 0 6 -5 11 -11 11 -7 0 -9 12 -6 33 3 17 3 26 0
20 -2 -7 -9 -13 -14 -13 -6 0 -8 4 -4 9 3 5 -2 17 -11 25 -12 12 -12 16 -2 17
7 0 3 4 -10 9 -19 8 -21 13 -13 29 8 15 7 20 -5 25 -10 4 -13 2 -8 -6 4 -7 3
-8 -5 -4 -9 6 -9 11 1 24 11 14 10 15 -6 9 -16 -6 -17 -5 -7 7 9 11 9 16 0 21
-8 6 -7 10 2 16 10 6 10 9 2 9 -7 0 -17 -8 -23 -17 -9 -16 -10 -15 -5 5 6 22
-8 31 -20 12z m-40 -100 c-3 -5 -11 -10 -16 -10 -6 0 -7 5 -4 10 3 6 11 10 16
10 6 0 7 -4 4 -10z m-30 -53 c-8 -13 -13 -26 -10 -29 3 -2 -2 -5 -9 -5 -12 0
-11 7 5 29 24 34 36 38 14 5z m-58 -112 c0 -8 -4 -12 -9 -9 -5 3 -6 10 -3 15
9 13 12 11 12 -6z m290 -11 c-3 -3 -12 -4 -19 -1 -8 3 -5 6 6 6 11 1 17 -2 13
-5z m723 -108 c0 -2 -8 -10 -17 -17 -16 -13 -17 -12 -4 4 13 16 21 21 21 13z
m70 -12 c0 -8 -19 -13 -24 -6 -3 5 1 9 9 9 8 0 15 -2 15 -3z m175 -4 c3 -6 -1
-7 -9 -4 -18 7 -21 14 -7 14 6 0 13 -4 16 -10z m-308 -23 c0 -8 -6 -14 -14
-14 -9 0 -10 4 -2 14 6 7 12 13 14 13 1 0 2 -6 2 -13z m581 -47 c-7 -11 -14
-17 -17 -15 -2 3 1 11 7 18 7 8 8 18 4 22 -4 5 -1 5 5 1 10 -5 10 -11 1 -26z
m-686 -147 c-6 -2 -9 -10 -6 -15 4 -7 2 -8 -5 -4 -13 9 -5 26 12 25 9 0 8 -2
-1 -6z m573 -33 c3 -6 -1 -7 -9 -4 -18 7 -21 14 -7 14 6 0 13 -4 16 -10z
m-205 -284 c0 -3 -4 -8 -10 -11 -5 -3 -10 -1 -10 4 0 6 5 11 10 11 6 0 10 -2
10 -4z m-176 -192 c3 -8 2 -12 -4 -9 -6 3 -10 10 -10 16 0 14 7 11 14 -7z
m-1114 -20 c0 -8 -19 -13 -24 -6 -3 5 1 9 9 9 8 0 15 -2 15 -3z m50 -65 c0 -6
-4 -7 -10 -4 -5 3 -10 11 -10 16 0 6 5 7 10 4 6 -3 10 -11 10 -16z m87 -91
c-3 -8 -6 -5 -6 6 -1 11 2 17 5 13 3 -3 4 -12 1 -19z"/>
<path d="M1223 1485 c0 -8 4 -15 9 -15 4 0 8 4 8 9 0 6 -4 12 -8 15 -5 3 -9
-1 -9 -9z"/>
<path d="M2332 1387 c-9 -10 -6 -13 13 -13 19 0 22 3 13 13 -6 7 -12 13 -13
13 -1 0 -7 -6 -13 -13z"/>
<path d="M150 1382 c0 -5 7 -9 15 -9 8 0 12 4 9 9 -3 4 -9 8 -15 8 -5 0 -9 -4
-9 -8z"/>
<path d="M310 1382 c0 -5 7 -9 15 -9 8 0 12 4 9 9 -3 4 -9 8 -15 8 -5 0 -9 -4
-9 -8z"/>
<path d="M476 1382 c-3 -5 1 -9 9 -9 8 0 12 4 9 9 -3 4 -7 8 -9 8 -2 0 -6 -4
-9 -8z"/>
<path d="M1810 1380 c0 -5 5 -10 11 -10 5 0 7 5 4 10 -3 6 -8 10 -11 10 -2 0
-4 -4 -4 -10z"/>
<path d="M310 1200 c0 -5 5 -10 11 -10 5 0 7 5 4 10 -3 6 -8 10 -11 10 -2 0
-4 -4 -4 -10z"/>
<path d="M2025 1200 c-3 -6 1 -7 9 -4 18 7 21 14 7 14 -6 0 -13 -4 -16 -10z"/>
<path d="M2295 1200 c-3 -5 -1 -10 4 -10 6 0 11 5 11 10 0 6 -2 10 -4 10 -3 0
-8 -4 -11 -10z"/>
<path d="M1425 1063 c2 -10 4 -21 4 -25 1 -5 6 -8 12 -8 8 0 7 6 -2 17 -8 9
-12 18 -11 20 2 3 1 7 -1 10 -3 3 -4 -3 -2 -14z"/>
<path d="M240 1066 c0 -2 7 -7 16 -10 8 -3 12 -2 9 4 -6 10 -25 14 -25 6z"/>
<path d="M1415 700 c3 -5 8 -10 11 -10 2 0 4 5 4 10 0 6 -5 10 -11 10 -5 0 -7
-4 -4 -10z"/>
<path d="M1500 701 c0 -7 -5 -9 -12 -5 -7 5 -8 3 -3 -5 5 -9 10 -10 18 -2 6 6
8 14 4 18 -4 3 -7 1 -7 -6z"/>
<path d="M913 246 c0 -8 4 -13 8 -10 4 2 12 -4 18 -13 5 -10 12 -15 15 -12 3
3 -5 15 -17 27 -18 17 -24 19 -24 8z"/>
</g>
</svg>
